# xmcd
#
# Track frame offsets: 
#        150
#        14531
#        28475
#        40267
#        57962
#        70705
#        84801
#        96290
#        108358
#        124509
#        137600
#        148454
#        162663
#        179403
#        195754
#        206482
#        227855
#        241286
#        260644
#        276792
#
# Disc length: 3884 seconds
#
# Revision: 0
# Processed by: cddbd v1.5.2PL0 Copyright (c) Steve Scherf et al.
# Submitted via: ExactAudioCopyFreeDBPlugin 1.0
#
DISCID=220f2a14
DTITLE=The Loose Change Band - Double Eagle
DYEAR=2012
DGENRE=Country
TTITLE0=Drivin' My Life Away
TTITLE1=I Can Help
TTITLE2=Wurlitzer Prize
TTITLE3=Long Tall Texan
TTITLE4=Some Broken Hearts
TTITLE5=Let It Be me
TTITLE6=Oh Lonsome Me
TTITLE7=Give Me Some
TTITLE8=Blue Spanish Eyes
TTITLE9=Someday
TTITLE10=She's Got the Rhythm
TTITLE11=New Orleans
TTITLE12=Silver Wings
TTITLE13=He'll Have to Go
TTITLE14=Out to the Country
TTITLE15=Turn the Page
TTITLE16=Never Ending Love for You
TTITLE17=I Believe In You
TTITLE18=Lady
TTITLE19=Girls All Get Prettier at Closin' Time
EXTD=
EXTT0=
EXTT1=
EXTT2=
EXTT3=
EXTT4=
EXTT5=
EXTT6=
EXTT7=
EXTT8=
EXTT9=
EXTT10=
EXTT11=
EXTT12=
EXTT13=
EXTT14=
EXTT15=
EXTT16=
EXTT17=
EXTT18=
EXTT19=
PLAYORDER=
